<svg id="Layer_1" data-name="Layer 1" xmlns="http://www.w3.org/2000/svg" xmlns:xlink="http://www.w3.org/1999/xlink" width="524.96" height="155.91" viewBox="0 0 524.96 155.91"><defs><style>.cls-1{fill:none;}.cls-2{clip-path:url(#clip-path);}.cls-3{fill:#2a3375;}.cls-4{clip-path:url(#clip-path-2);}.cls-5{clip-path:url(#clip-path-3);}.cls-6{clip-path:url(#clip-path-4);}.cls-7{clip-path:url(#clip-path-5);}.cls-8{clip-path:url(#clip-path-6);}.cls-9{clip-path:url(#clip-path-7);}.cls-10{clip-path:url(#clip-path-8);}.cls-11{clip-path:url(#clip-path-9);}.cls-12{clip-path:url(#clip-path-10);}.cls-13{clip-path:url(#clip-path-11);}.cls-14{clip-path:url(#clip-path-12);}.cls-15{clip-path:url(#clip-path-13);}.cls-16{fill:#fdd100;}.cls-17{clip-path:url(#clip-path-14);}.cls-18{fill:#fff;}.cls-19{clip-path:url(#clip-path-15);}</style><clipPath id="clip-path" transform="translate(12.48 -172.05)"><path class="cls-1" d="M470.25,235.05c-1.64-2.14-2.45-5.18-2.45-9.13s.81-7,2.45-9.09a9.21,9.21,0,0,1,14,0c1.62,2.12,2.43,5.16,2.43,9.09s-.81,7-2.43,9.13a9.19,9.19,0,0,1-14,0m-8.19-23.87a24.29,24.29,0,0,0,0,29.55q5,6.15,15.21,6.16t15.22-6.16a24.29,24.29,0,0,0,0-29.55q-5-6.26-15.22-6.24t-15.21,6.24"/></clipPath><clipPath id="clip-path-2" transform="translate(12.48 -172.05)"><path class="cls-1" d="M390.79,238.1a4.66,4.66,0,0,1-1.46-3.84,4.77,4.77,0,0,1,2.4-4.41,14.66,14.66,0,0,1,4.69-1.41l2.32-.44a17,17,0,0,0,2.73-.72,10.52,10.52,0,0,0,2-1v3.86q-.1,5.22-2.93,7.18a10.49,10.49,0,0,1-6.14,2,5.57,5.57,0,0,1-3.59-1.19m-7.53-27.92a15.51,15.51,0,0,0-2.88,8.56h9.84a7.58,7.58,0,0,1,1.45-3.64c1-1.21,2.74-1.82,5.18-1.82a10.36,10.36,0,0,1,4.95.93,3.5,3.5,0,0,1,1.69,3.36,3.14,3.14,0,0,1-2.2,3,16.5,16.5,0,0,1-4.08.91l-3.48.44a24.42,24.42,0,0,0-9,2.55q-5.58,3.27-5.58,10.6c0,3.75,1.15,6.67,3.47,8.72s5.25,2.91,8.79,3.08c22.24,1,22-11.94,22.2-14.64V217.28q0-7.16-5-9.76a24.51,24.51,0,0,0-11.42-2.58q-9.87,0-13.93,5.24"/></clipPath><clipPath id="clip-path-3" transform="translate(12.48 -172.05)"><path class="cls-1" d="M343.79,210.61q-5.1,5.69-5.1,15.88,0,9,4.61,14.72t14.42,5.68q9.81,0,14.8-6.81a17,17,0,0,0,3.51-9H365.19a9.53,9.53,0,0,1-1.9,5.09q-1.56,2-5.3,2a7.09,7.09,0,0,1-7.16-4.95,19.36,19.36,0,0,1-1.05-7,21.08,21.08,0,0,1,1.05-7.33q2-5.21,7.35-5.21a6.47,6.47,0,0,1,5.56,2.41,9,9,0,0,1,1.53,4h10.87q-.88-8.48-5.75-11.83t-12.51-3.34c-6,0-10.69,1.89-14.09,5.67"/></clipPath><clipPath id="clip-path-4" transform="translate(12.48 -172.05)"><path class="cls-1" d="M314.73,225v20.39h10.18V226.26q0-4.68,1.17-6.95c1.39-2.67,4.12-4,8.2-4,.3,0,.71,0,1.2,0s1.06.07,1.71.15V205l-.87,0-.48,0c-22.44,0-21.11,20.06-21.11,20.06"/></clipPath><clipPath id="clip-path-5" transform="translate(12.48 -172.05)"><path class="cls-1" d="M284.6,215.72a8.13,8.13,0,0,1,6.13-2.26,9,9,0,0,1,6.09,2.13,8.67,8.67,0,0,1,2.73,6.26H281.86a10.79,10.79,0,0,1,2.74-6.13m-7.92-5.3q-5.4,5.49-5.41,15.76,0,11,6,15.84a21.33,21.33,0,0,0,13.83,4.87q9.51,0,14.78-5.78a14,14,0,0,0,3.58-6h-11a7.78,7.78,0,0,1-1.41,1.58c-1.47,1.21-3.45,1.57-5.78,1.57a9.73,9.73,0,0,1-5.51-1.33c-2.57-1.59-4-4.29-4.18-8.26h28.6a53.14,53.14,0,0,0-.34-7.85,19.56,19.56,0,0,0-3.13-8.18,16,16,0,0,0-6.79-5.85,22.07,22.07,0,0,0-9.22-1.85q-8.64,0-14.05,5.48"/></clipPath><clipPath id="clip-path-6" transform="translate(12.48 -172.05)"><path class="cls-1" d="M239.16,210.36a14.21,14.21,0,0,0-11.52-5.42c-9.91,0-16.3,7.36-16.3,17.09v23.36h9.27V221.81c0-4.31,2.88-7.28,7-7.28,6.11,0,6.74,5.13,6.74,7.28v23.58h9.28V221.81c0-4.31,3-7.28,7-7.28,6.11,0,6.81,5.13,6.81,7.28v23.58h9.27V222c0-10-6-17.09-16.08-17.09a14.72,14.72,0,0,0-11.53,5.42"/></clipPath><clipPath id="clip-path-7" transform="translate(12.48 -172.05)"><path class="cls-1" d="M430.56,235.21a16.89,16.89,0,0,1-2.1-9,16.1,16.1,0,0,1,2.06-8.45,7,7,0,0,1,6.47-3.4,7.56,7.56,0,0,1,5.08,1.87c2.38,2.07,3.57,5.77,3.57,10.57a14.59,14.59,0,0,1-2.23,8.4,7.38,7.38,0,0,1-6.49,3.24,7,7,0,0,1-6.36-3.26m14.8-35v11.07a12.38,12.38,0,0,0-4.41-4.34,12.19,12.19,0,0,0-6.21-1.57,14.65,14.65,0,0,0-12.11,5.77c-3,3.85-4.53,9.39-4.53,16.09,0,5.8,1.54,10.58,4.6,14.28s9.09,5.34,14.43,5.34c18.64,0,18.42-16.33,18.42-16.33V193s-.45-.05-1.17-.05c-2.68,0-9,.7-9,7.3"/></clipPath><clipPath id="clip-path-8" transform="translate(12.48 -172.05)"><path class="cls-1" d="M323.55,276.76a8.3,8.3,0,0,1,6.13-2.18,9.08,9.08,0,0,1,6.08,2.06,8.19,8.19,0,0,1,2.74,6H320.81a10.28,10.28,0,0,1,2.74-5.91m-7.92-5.11c-3.6,3.53-5.41,8.58-5.41,15.2q0,10.57,6,15.27a21.77,21.77,0,0,0,13.83,4.69q9.49,0,14.77-5.56a13.67,13.67,0,0,0,3.59-5.79h-11A7.67,7.67,0,0,1,336,297a9.34,9.34,0,0,1-5.86,1.6,10.1,10.1,0,0,1-5.5-1.28q-3.87-2.31-4.1-8.05h28.6a49.35,49.35,0,0,0-.35-7.58,18.66,18.66,0,0,0-3.12-7.89,15.91,15.91,0,0,0-6.79-5.63,23,23,0,0,0-9.23-1.78q-8.64,0-14.05,5.28"/></clipPath><clipPath id="clip-path-9" transform="translate(12.48 -172.05)"><path class="cls-1" d="M257.93,295.15a14.56,14.56,0,0,1-2.22-8.39q0-7.22,3.56-10.31a7.56,7.56,0,0,1,5.08-1.87,7,7,0,0,1,6.47,3.4,16.1,16.1,0,0,1,2.07,8.45,15.93,15.93,0,0,1-2.1,8.71,7.07,7.07,0,0,1-6.37,3.25,7.34,7.34,0,0,1-6.49-3.24m-12.14-34.8v30.14s-.21,16.32,18.43,16.32c5.34,0,11.36-1.63,14.43-5.34s4.6-8.46,4.6-14.28q0-10.05-4.53-15.82a14.63,14.63,0,0,0-12.12-5.76,12.23,12.23,0,0,0-6.2,1.56,12.44,12.44,0,0,0-4.42,4.35v-18.6a8.66,8.66,0,0,0-1,0c-2.58,0-9.17.68-9.17,7.48"/></clipPath><clipPath id="clip-path-10" transform="translate(12.48 -172.05)"><path class="cls-1" d="M286.27,285.09v20.23h10.18v-19q0-4.74,1.17-7,2.08-4.05,8.2-4.05c.3,0,.7,0,1.2,0s1.06.07,1.71.14V264.94l-.88-.06-.47,0c-22.44,0-21.11,20.23-21.11,20.23"/></clipPath><clipPath id="clip-path-11" transform="translate(12.48 -172.05)"><path class="cls-1" d="M211.34,260.23v45.09h9V252.88h-.21c-1.35,0-8.78.32-8.78,7.36"/></clipPath><clipPath id="clip-path-12" transform="translate(12.48 -172.05)"><path class="cls-1" d="M93,187c-50.06.15-90.56,27-90.45,59.79l0,3.5c.13,34.82,35.64,62.86,90.79,62.65,55.53-.11,90.54-28.47,90.5-63.2-.11-1.23,0-1.89,0-3.5C183.68,213.63,143.23,187,93.36,187Z"/></clipPath><clipPath id="clip-path-13" transform="translate(12.48 -172.05)"><path class="cls-1" d="M93,190.12c-47.69.13-86.28,25.53-86.19,56.72S45.6,303.2,93.29,303.06s86.27-25.52,86.19-56.72-38.61-56.22-86.12-56.22Z"/></clipPath><clipPath id="clip-path-14" transform="translate(12.48 -172.05)"><path class="cls-1" d="M51.89,253.11a6.11,6.11,0,0,0,0,12.21,6.3,6.3,0,0,0,4.22-1.76.13.13,0,0,1,0,.19c-.26,1.52-.67,7,5,9.21A5.77,5.77,0,0,0,67,272c.47-.38.57-.2.47.27-.17,1.43.06,4.45,4.32,6.1a5.54,5.54,0,0,0,6.4-1.21c.56-.48.65-.39.76.37a7.63,7.63,0,0,0,15.26-.38,7.71,7.71,0,0,0-7.72-7.56c-1.7,0-3.57,1-3.86.89a2.67,2.67,0,0,1,.28-1.23c.18-.38,2.45-7.32-3.14-9.61-4.27-1.85-6.88.27-7.72,1.13-.27.29-.37.2-.38-.09A6.12,6.12,0,0,0,67.37,255a8.35,8.35,0,0,0-9.47,3.42A6,6,0,0,0,52,253.11ZM6.57,239.86c1.61.46,4.06,1.18,5.21,1.36,24.76,5.46,32.56,11.14,33.89,12.35a8.32,8.32,0,0,1,6.09-2.83,8.2,8.2,0,0,1,6.74,3.52,8.84,8.84,0,0,1,5.92-2.06,10,10,0,0,1,3.59.62A7.56,7.56,0,0,1,73,257.3a7.53,7.53,0,0,1,3.49-.7,11.12,11.12,0,0,1,4.15.89c4.55,1.93,5.26,6.46,4.93,9.87a3.29,3.29,0,0,1,.94,0,9.87,9.87,0,0,1,9.83,9.81,9.64,9.64,0,0,1-1.17,4.65c1.52.83,5.22,2.68,8.51,2.27,2.64-.32,3.66-1.28,4-1.75s.47-.77.28-1.05l-7-7.77s-1.14-1.12-.77-1.5,1.13.17,1.6.64c3.54,3,7.93,7.47,7.93,7.47s.38.66,2,.92a7.38,7.38,0,0,0,5.55-1.3,8.42,8.42,0,0,0,1.22-1.24l-.1.1c1.76-2.3-.24-4.64-.24-4.64l-8.23-9.17s-1.14-1.12-.76-1.51,1.13.18,1.61.65c2.56,2.14,6.28,5.78,9.72,9.25.67.45,3.8,2.41,7.82-.29,2.43-1.64,3-3.63,2.86-5.15a6,6,0,0,0-1.73-3.38l-11.17-11.22s-1.14-1-.77-1.51,1.13.18,1.61.65c3.53,3,13.24,11.76,13.24,11.76a6.78,6.78,0,0,0,7.55-.19,5.12,5.12,0,0,0,2.5-4,5.92,5.92,0,0,0-1.86-4.62c-.28-.28-28.29-24.72-34.57-29.47-3.71-2.7-5.7-3.43-7.87-3.68a10.26,10.26,0,0,0-3.77.32c-2.92.8-6.75,3.4-10.2,6.09-3.55,2.89-6.82,5.48-9.92,6.18-4,.9-8.77-.18-11-1.67a5,5,0,0,1-1.82-2c-.77-1.88.72-3.41.91-3.7l7.72-8.42c.93-.86,1.77-1.82,2.7-2.68a51.77,51.77,0,0,0-7,1.6,28.31,28.31,0,0,1-8.19,1.52,67,67,0,0,1-8.4-1.32,127.28,127.28,0,0,1-22.26-7.95C15.92,218.26,8.6,228.58,6.57,239.86m89.94-31.3c-13.1.36-18.78,6-24.74,12.13L64.14,229c0,.1-.93,1-.36,1.71,1.34,1.79,5.6,2.77,9.92,1.76,2.54-.59,5.81-3.19,9-5.78,3.46-2.79,6.82-5.48,10.29-6.65a11.76,11.76,0,0,1,7.54-.2,22.55,22.55,0,0,1,6.84,4c6,4.47,30,25.46,34.19,29a204.69,204.69,0,0,1,38.32-12.49c-1.82-10.77-8.36-20.63-18.26-28.65-13.79,5.86-30.72,9-47.22.88-.1,0-8.6-4-17.25-4h-.62"/></clipPath><clipPath id="clip-path-15" transform="translate(12.48 -172.05)"><path class="cls-1" d="M46.49,259.42a5.49,5.49,0,0,1,10.95-.7l.21,1.51.83-1.24A8.16,8.16,0,0,1,65,255.41a6.7,6.7,0,0,1,2.36.35A5.63,5.63,0,0,1,71.26,261c.1.75.58.75.68.75a1.44,1.44,0,0,0,.65-.29,5.62,5.62,0,0,1,4-1.76,7.47,7.47,0,0,1,3,.72c5.23,2.21,2.86,8.86,2.86,9-.47,1.14-.46,1.61-.08,1.89l.19.09h.2a4.09,4.09,0,0,0,1-.3,8.63,8.63,0,0,1,2.83-.6,7,7,0,1,1,0,14,7.1,7.1,0,0,1-7.17-6.82c0-.28,0-1.22-.76-1.22a1.33,1.33,0,0,0-.85.49,4.63,4.63,0,0,1-3.48,1.56,5,5,0,0,1-2.27-.55c-4.08-1.65-4.12-4.39-3.94-5.53a.91.91,0,0,0-.11-.85l-.28-.19h-.29a1.23,1.23,0,0,0-.65.29,5.65,5.65,0,0,1-3.48,1.28,4.48,4.48,0,0,1-1.89-.36c-5.33-2.11-4.91-7.12-4.65-8.65,0-.28,0-.57-.19-.66l-.39-.27-.37.37A5.42,5.42,0,0,1,52,264.94H52a5.56,5.56,0,0,1-5.48-5.52m50.75-53.8h-.76c-10.86.32-17,4.18-21.07,7.54a42.48,42.48,0,0,0-10.47,1.93,25.06,25.06,0,0,1-7.44,1.42c-.49,0-1.19,0-1.77,0l-1.06,0c-2.65-.06-16-3.31-26.64-7.34-1.13.78-2.16,1.55-3.19,2.41,11.11,4.49,24.66,8,28.92,8.25l3.69.24a31.55,31.55,0,0,0,8.39-1.62,41.45,41.45,0,0,1,5.27-1.3c-.47.49-1,1-1.49,1.54L62,227c-.56.57-2,2.29-1.08,4.27a5.65,5.65,0,0,0,2,2.25,17,17,0,0,0,8.15,2.07,18.36,18.36,0,0,0,3.3-.33c3.21-.7,6.57-3.48,10.23-6.27,2.8-2.31,6.92-5.19,10-6.08a14.33,14.33,0,0,1,2.83-.42,2,2,0,0,1,.75.08c2.08.26,4.07,1,7.6,3.6,6.3,4.75,34.37,29.19,34.65,29.38a5.39,5.39,0,0,1,1.66,4.14,4.65,4.65,0,0,1-2.22,3.62,7,7,0,0,1-3.67,1.18,6.36,6.36,0,0,1-3.23-.91c-.09-.09-9.74-8.86-13.27-11.75a4.06,4.06,0,0,0-1.62-.92.85.85,0,0,0-.75.38c-.56.67.11,1.61.78,2.26l11.19,11.21a5.21,5.21,0,0,1,1.55,3c.11,1.89-.81,3.41-2.69,4.66a6.51,6.51,0,0,1-4,1.29,5.82,5.82,0,0,1-3.22-1l-1.62-1.58c-3-2.9-6-5.89-8.23-7.76a2.91,2.91,0,0,0-1.7-.83.88.88,0,0,0-.67.3c-.28.28-.46.76.21,1.6a6.51,6.51,0,0,0,.58.66l8.23,9.16a3,3,0,0,1,.24,3.88l-.28.39-.74.76a6.61,6.61,0,0,1-4,1.28,4.28,4.28,0,0,1-1.13-.08,3.25,3.25,0,0,1-1.62-.64l-.09-.1c-.48-.46-4.6-4.67-8-7.46a2.93,2.93,0,0,0-1.62-.84,1,1,0,0,0-.75.3c-.65.76.31,1.88.78,2.26l7,7.66c0,.11-.1.2-.28.49s-1.12,1.15-3.57,1.56c-.29,0-.66.1-1,.11a15.69,15.69,0,0,1-6.83-2,10.41,10.41,0,0,0,1-4.45A10.3,10.3,0,0,0,86.55,267h-.38c.16-2.65-.19-7.57-5.31-9.78a12,12,0,0,0-4.36-1,9.1,9.1,0,0,0-3.21.6,8.47,8.47,0,0,0-5.06-4.29,10.48,10.48,0,0,0-3.69-.62,10.23,10.23,0,0,0-5.84,1.87,9,9,0,0,0-6.84-3.32,8.61,8.61,0,0,0-6.2,2.64c-2.2-1.68-10.76-7.07-33.88-12.27-1.14-.26-3.7-1-5.22-1.45-.26,1.23-.43,2.47-.61,3.8,0,0,4.26,1,5.12,1.17,23.58,5.19,31.3,10.59,32.64,11.61a9.92,9.92,0,0,0-.72,3.41,9,9,0,0,0,10.41,8.68,10.16,10.16,0,0,0,6.71,7.67,8.8,8.8,0,0,0,3.12.62,13.31,13.31,0,0,0,2-.21,9.29,9.29,0,0,0,5.45,5.14,9.51,9.51,0,0,0,3.5.71,9.25,9.25,0,0,0,2.73-.5,10.27,10.27,0,0,0,9.62,6.4,10.09,10.09,0,0,0,7.43-3.21,20.39,20.39,0,0,0,8.82,2.63,5.42,5.42,0,0,0,1.32-.11c3.59-.41,5.18-1.86,5.92-2.91.09-.19.28-.38.37-.57a8.77,8.77,0,0,0,2.84.44,9.63,9.63,0,0,0,5.64-2.06,7.77,7.77,0,0,0,3.35-4.87v-.09a11.94,11.94,0,0,0,1.88.17,10.61,10.61,0,0,0,5.84-1.88c3.66-2.41,4.28-5.54,4.16-7.53a13.36,13.36,0,0,0,1.89.17,10.77,10.77,0,0,0,5.46-1.67,8.14,8.14,0,0,0,3.8-6.2,8.55,8.55,0,0,0-1.19-5,236.6,236.6,0,0,1,36.24-11.51c-.11-1.23-.32-2.55-.52-3.78a203.51,203.51,0,0,0-37.84,12.39c-8.59-7.46-28.64-24.82-34-28.82a23.47,23.47,0,0,0-7-4.07,10.81,10.81,0,0,0-3.4-.53,14.74,14.74,0,0,0-4.34.71c-3.49,1.09-7,3.88-10.32,6.57l-.19.1c-3.08,2.49-6.36,5.09-8.81,5.59a18.49,18.49,0,0,1-3.3.42c-2.74,0-5.21-.78-6.16-1.91-.2-.19-.11-.47.26-1l.1-.1,7.55-8.23c5.88-5.93,11.49-11.58,24.43-11.94h.66c8,0,16.1,3.58,17,3.95a52.25,52.25,0,0,0,23.11,5.49c8.13,0,16.52-2.1,25.35-6.19-1-.83-2-1.67-3.06-2.42a55,55,0,0,1-22.33,5.1,50,50,0,0,1-21.69-5.12c-.38-.18-9.18-4.31-18.42-4.31Z"/></clipPath></defs><title>mercado-libre-logo</title><g class="cls-2"><rect class="cls-3" x="454.54" y="17.9" width="70.42" height="71.92"/></g><g class="cls-4"><rect class="cls-3" x="376.63" y="17.9" width="64.43" height="71.92"/></g><g class="cls-5"><rect class="cls-3" x="336.18" y="17.9" width="67.42" height="71.92"/></g><g class="cls-6"><rect class="cls-3" x="312.21" y="17.9" width="52.44" height="70.42"/></g><g class="cls-7"><rect class="cls-3" x="268.76" y="17.9" width="68.92" height="71.92"/></g><g class="cls-8"><rect class="cls-3" x="208.83" y="17.9" width="85.4" height="70.42"/></g><g class="cls-9"><rect class="cls-3" x="415.59" y="5.92" width="67.42" height="83.9"/></g><g class="cls-10"><rect class="cls-3" x="307.71" y="79.33" width="68.92" height="70.42"/></g><g class="cls-11"><rect class="cls-3" x="243.29" y="65.85" width="67.42" height="83.9"/></g><g class="cls-12"><rect class="cls-3" x="283.75" y="77.84" width="52.44" height="70.42"/></g><g class="cls-13"><rect class="cls-3" x="208.83" y="65.85" width="38.95" height="82.4"/></g><rect class="cls-3" x="240.29" y="80.83" width="10.49" height="10.49"/><rect class="cls-3" x="240.29" y="94.32" width="10.49" height="38.95"/><g class="cls-14"><rect class="cls-3" width="211.3" height="155.91"/></g><g class="cls-15"><rect class="cls-16" x="4.27" y="3.08" width="202.67" height="142.91"/></g><g class="cls-17"><rect class="cls-18" x="4.06" y="21.52" width="203.25" height="106.26"/></g><g class="cls-19"><rect class="cls-3" x="3.44" y="18.58" width="204.29" height="112.23"/></g></svg>